<mxfile host="app.diagrams.net" modified="2022-10-11T06:09:17.190Z" agent="5.0 (Windows NT 10.0; Win64; x64) AppleWebKit/537.36 (KHTML, like Gecko) Chrome/105.0.0.0 Safari/537.36" etag="plLaO1QVfa2sK30bOcaJ" version="20.3.6" type="github">
  <diagram id="6oUjA9D6RYRwFqdBIRCz" name="Sayfa -1">
    <mxGraphModel dx="862" dy="1619" grid="1" gridSize="10" guides="1" tooltips="1" connect="1" arrows="1" fold="1" page="1" pageScale="1" pageWidth="827" pageHeight="1169" math="0" shadow="0">
      <root>
        <mxCell id="0" />
        <mxCell id="1" parent="0" />
        <mxCell id="KzJaSiEUEcrQhtmxzuKy-2" value="&lt;b&gt;&lt;font face=&quot;Times New Roman&quot;&gt;Client 1&lt;br&gt;&lt;/font&gt;&lt;/b&gt;&lt;br&gt;&lt;font face=&quot;Times New Roman&quot;&gt;Ip Number: 10.34.80.181&lt;br&gt;Port: 678&lt;/font&gt;" style="rounded=1;whiteSpace=wrap;html=1;fillColor=#fff2cc;strokeColor=#d6b656;" vertex="1" parent="1">
          <mxGeometry x="360" y="-650" width="150" height="90" as="geometry" />
        </mxCell>
        <mxCell id="KzJaSiEUEcrQhtmxzuKy-4" value="&lt;b&gt;&lt;font face=&quot;Times New Roman&quot;&gt;Client 2&lt;br&gt;&lt;/font&gt;&lt;/b&gt;&lt;br&gt;&lt;font face=&quot;Times New Roman&quot;&gt;Ip Number: 192.103.10.121&lt;br&gt;Port: 678&lt;/font&gt;" style="rounded=1;whiteSpace=wrap;html=1;fillColor=#fff2cc;strokeColor=#d6b656;" vertex="1" parent="1">
          <mxGeometry x="360" y="-400" width="150" height="90" as="geometry" />
        </mxCell>
        <mxCell id="KzJaSiEUEcrQhtmxzuKy-5" value="&lt;b&gt;Service&lt;br&gt;&lt;/b&gt;Ip Number: 203.0.113.1&lt;br&gt;Port: 678&lt;b&gt;&lt;br&gt;&lt;/b&gt;" style="rounded=1;whiteSpace=wrap;html=1;fontFamily=Times New Roman;fillColor=#d5e8d4;strokeColor=#82b366;" vertex="1" parent="1">
          <mxGeometry x="110" y="-520" width="140" height="70" as="geometry" />
        </mxCell>
        <mxCell id="KzJaSiEUEcrQhtmxzuKy-7" value="" style="endArrow=classic;html=1;rounded=0;fontFamily=Times New Roman;" edge="1" parent="1">
          <mxGeometry width="50" height="50" relative="1" as="geometry">
            <mxPoint x="260" y="-510" as="sourcePoint" />
            <mxPoint x="350" y="-560" as="targetPoint" />
          </mxGeometry>
        </mxCell>
        <mxCell id="KzJaSiEUEcrQhtmxzuKy-8" value="" style="endArrow=classic;html=1;rounded=0;fontFamily=Times New Roman;" edge="1" parent="1">
          <mxGeometry width="50" height="50" relative="1" as="geometry">
            <mxPoint x="360" y="-550" as="sourcePoint" />
            <mxPoint x="270" y="-500" as="targetPoint" />
          </mxGeometry>
        </mxCell>
        <mxCell id="KzJaSiEUEcrQhtmxzuKy-9" value="" style="endArrow=classic;html=1;rounded=0;fontFamily=Times New Roman;" edge="1" parent="1">
          <mxGeometry width="50" height="50" relative="1" as="geometry">
            <mxPoint x="260" y="-440" as="sourcePoint" />
            <mxPoint x="350" y="-380" as="targetPoint" />
          </mxGeometry>
        </mxCell>
        <mxCell id="KzJaSiEUEcrQhtmxzuKy-10" value="" style="endArrow=classic;html=1;rounded=0;fontFamily=Times New Roman;" edge="1" parent="1">
          <mxGeometry width="50" height="50" relative="1" as="geometry">
            <mxPoint x="340" y="-370" as="sourcePoint" />
            <mxPoint x="250" y="-430" as="targetPoint" />
          </mxGeometry>
        </mxCell>
        <mxCell id="KzJaSiEUEcrQhtmxzuKy-11" value="&lt;b&gt;&lt;font style=&quot;font-size: 14px;&quot; color=&quot;#ff8000&quot;&gt;SOCKET END&lt;/font&gt;&lt;/b&gt;" style="text;html=1;align=center;verticalAlign=middle;resizable=0;points=[];autosize=1;strokeColor=none;fillColor=none;fontFamily=Times New Roman;" vertex="1" parent="1">
          <mxGeometry x="115" y="-440" width="110" height="30" as="geometry" />
        </mxCell>
        <mxCell id="KzJaSiEUEcrQhtmxzuKy-12" value="&lt;b&gt;&lt;font style=&quot;font-size: 14px;&quot; color=&quot;#ff8000&quot;&gt;SOCKET END&lt;/font&gt;&lt;/b&gt;" style="text;html=1;align=center;verticalAlign=middle;resizable=0;points=[];autosize=1;strokeColor=none;fillColor=none;fontFamily=Times New Roman;" vertex="1" parent="1">
          <mxGeometry x="380" y="-550" width="110" height="30" as="geometry" />
        </mxCell>
        <mxCell id="KzJaSiEUEcrQhtmxzuKy-13" value="&lt;b&gt;&lt;font style=&quot;font-size: 14px;&quot; color=&quot;#ff8000&quot;&gt;SOCKET END&lt;/font&gt;&lt;/b&gt;" style="text;html=1;align=center;verticalAlign=middle;resizable=0;points=[];autosize=1;strokeColor=none;fillColor=none;fontFamily=Times New Roman;" vertex="1" parent="1">
          <mxGeometry x="380" y="-300" width="110" height="30" as="geometry" />
        </mxCell>
      </root>
    </mxGraphModel>
  </diagram>
</mxfile>
